<svg id="Camada_1" data-name="Camada 1" xmlns="http://www.w3.org/2000/svg" viewBox="0 0 28.11 28.55"><defs><style>.cls-1{fill:#c4ddef;}.cls-2{fill:#c9dd94;}.cls-3{fill:#e0edf8;}.cls-4{fill:#e8f0d4;}.cls-5{fill:#30a6d2;}.cls-6{fill:#9dc53e;}.cls-7{fill:#f5f6f5;}.cls-8{fill:#f4f5f5;}.cls-9{fill:#f3f5f5;}.cls-10{fill:#f4f5f2;}.cls-11{fill:#35a7d3;}.cls-12{fill:#9ec540;}.cls-13{fill:#a0c643;}.cls-14{fill:#9fc643;}.cls-15{fill:#a0c644;}.cls-16{fill:#f2f4f5;}</style></defs><path class="cls-1" d="M29.05,15.81h0V14.55h0Z" transform="translate(-0.94 -0.8)"/><path class="cls-2" d="M14.46,29.35Z" transform="translate(-0.94 -0.8)"/><path class="cls-3" d="M15.52.8Z" transform="translate(-0.94 -0.8)"/><path class="cls-4" d="M15.61,29.35Z" transform="translate(-0.94 -0.8)"/><path class="cls-5" d="M14.58.82h.95a7.31,7.31,0,0,0,1.24.07A12,12,0,0,1,19,1.37a13.72,13.72,0,0,1,2.6,1.08A14.46,14.46,0,0,1,23.91,4a15.32,15.32,0,0,1,1.36,1.31A13.88,13.88,0,0,1,27.79,9a13.06,13.06,0,0,1,.94,2.83c.09.42.16.84.22,1.26s.06.6.09.89a5.12,5.12,0,0,1,0,.56v1.25a15.18,15.18,0,0,1-.57,3.67,12.18,12.18,0,0,1-1.13,2.68A8,8,0,0,1,26,24l-.08.06-.53,0-1.49.05A25.63,25.63,0,0,1,21.1,24a6.38,6.38,0,0,1-.73-.1.15.15,0,0,1-.12-.1c-.09-.18-.18-.37-.28-.55s-.2-.45-.3-.67a3.75,3.75,0,0,0-.94-1.26,5.24,5.24,0,0,0-2.21-1.19,4.74,4.74,0,0,0-2.12,0,4.89,4.89,0,0,0-2.69,1.66,6.33,6.33,0,0,0-1.13,2,.26.26,0,0,1-.07.21H4.09a2.91,2.91,0,0,1-.53-.72,13.8,13.8,0,0,1-1.28-2.16,15.82,15.82,0,0,1-.61-1.62,15.87,15.87,0,0,1-.56-2.26c-.06-.36-.09-.72-.14-1.08a12.63,12.63,0,0,1,0-1.74,12.38,12.38,0,0,1,.18-1.72,14.33,14.33,0,0,1,.52-2.15A14.93,14.93,0,0,1,2.83,8,16.22,16.22,0,0,1,4.19,6,15.3,15.3,0,0,1,6.45,3.82,14,14,0,0,1,9.29,2.09a13.5,13.5,0,0,1,3.19-1c.43-.08.87-.14,1.31-.19A7.18,7.18,0,0,0,14.58.82ZM17.51,3.9l-1-.07H13.38a.9.9,0,0,0-.62.25h0c-.44.35-.84.74-1.25,1.13s-1,1-1.52,1.54S9,7.69,8.56,8.2l-.34.32a1.25,1.25,0,0,0-.39.85v1a10.84,10.84,0,0,0,0,1.14,2.88,2.88,0,0,0,.15.72,2.85,2.85,0,0,0,.66.94c.43.43.87.85,1.31,1.27L11.42,16c.34.32.68.62,1.05.94a2.63,2.63,0,0,0,1.8.61H19a5.89,5.89,0,0,0,1-.11,1.21,1.21,0,0,0,.42-.13V13.92c0-1,0-2,0-3a1.81,1.81,0,0,0-.06-.56A1.25,1.25,0,0,0,20.3,10a.18.18,0,0,0-.13-.14l-.27-.07a7.93,7.93,0,0,0-1.46-.13H14.62l-.08,2.4H17.9v2.78H15l-.69,0a.89.89,0,0,1-.51-.23,4.44,4.44,0,0,1-.38-.37l-1.2-1a2.9,2.9,0,0,0-.36-.34l-1.13-1.08a2.33,2.33,0,0,1-.42-.57,1,1,0,0,1-.09-.47,1.39,1.39,0,0,1,.24-.68,5.54,5.54,0,0,1,.81-1c.48-.49.94-.94,1.48-1.46a9.35,9.35,0,0,1,1-.89,1.54,1.54,0,0,1,1-.34h2.64Zm4,14.75-.08.09A1,1,0,0,1,21,19l-.24.07a.54.54,0,0,0-.37.36,1.6,1.6,0,0,0-.05.21c0,.24-.05.48-.06.73a16,16,0,0,0,0,2,4.11,4.11,0,0,0,.16.85c.06.21,0,.18.24.23a6,6,0,0,0,1.26.11h1.69a7.46,7.46,0,0,0,1.16-.1c.27-.05.23,0,.27-.27s.08-.54.11-.81.06-.7.08-1.05,0-.63,0-.94a3.46,3.46,0,0,0-.09-.85.54.54,0,0,0-.28-.38h-.06a2.78,2.78,0,0,1-.77-.55H24l-.27.7-.19-.09a.57.57,0,0,0-.33-.11H21.87a.48.48,0,0,0-.06-.18A.87.87,0,0,0,21.49,18.65ZM18.57,3.31a2.37,2.37,0,0,0,0,.55l.06.64.09,1,0,.64c0,.32.07.64.1,1A7.16,7.16,0,0,0,19,8v.24l.13-.07a3.53,3.53,0,0,0,.57-.45L20,7.5l.08.06a1.76,1.76,0,0,1,.33.43c.14.32.29.64.45.95.06.11.09.13.23.11a1.19,1.19,0,0,0,.56-.25c.09-.06.1-.1.06-.19l-.09-.16c-.18-.36-.35-.71-.52-1.07,0-.09-.08-.21-.13-.32h.12L21.64,7a2,2,0,0,0,.59-.15.89.89,0,0,0,.31-.27h-.05A15.45,15.45,0,0,1,21,5.33L20,4.31a8.26,8.26,0,0,0-1.06-.81ZM9.22,18.22v3.86a4.68,4.68,0,0,0,0,.53.61.61,0,0,0,.21.35H10c.08-.09.18-.15.21-.27a1.49,1.49,0,0,0,.1-.55V18.2ZM6.1,19.38a.14.14,0,0,0,0,.09v2.61a2.28,2.28,0,0,0,0,.37,1.19,1.19,0,0,0,.17.51.1.1,0,0,0,.11.07H7a.11.11,0,0,0,.1-.06.85.85,0,0,0,.13-.47V19.35ZM8.57,23v-.16A3,3,0,0,0,8.69,22v-1.9a7,7,0,0,0-1.12,0v3ZM4.44,20.6v.53l.06,1.26V23a7.37,7.37,0,0,0,.94,0V20.6Zm5.9-3.93h0s-.24-.23-.36-.32a1.67,1.67,0,0,0-.24-.16.1.1,0,0,0-.14,0l-.34.28a.24.24,0,0,0-.09.11,2.63,2.63,0,0,0-.14.5l.42.23c.26.14.18.11.45.05a.32.32,0,0,0,.19-.15Z" transform="translate(-0.94 -0.8)"/><path class="cls-6" d="M4.11,24h6.42a.24.24,0,0,1,.07-.21,6.15,6.15,0,0,1,1.13-2,4.84,4.84,0,0,1,2.69-1.66,4.47,4.47,0,0,1,2.12,0,5,5,0,0,1,2.21,1.19,3.62,3.62,0,0,1,.94,1.25c.09.23.2.45.3.67s.19.37.28.55a.15.15,0,0,0,.12.1c.24,0,.49.09.73.11a25.62,25.62,0,0,0,2.77.07l1.49,0,.53,0a3.13,3.13,0,0,1-.21.34,12.49,12.49,0,0,1-3.18,2.85,14,14,0,0,1-3.45,1.57,13.76,13.76,0,0,1-1.8.4,13.26,13.26,0,0,1-1.37.14H14.46a11.27,11.27,0,0,1-1.64-.18,14.66,14.66,0,0,1-2.26-.57,13.61,13.61,0,0,1-3.32-1.56,17.45,17.45,0,0,1-1.8-1.41,6.4,6.4,0,0,1-1.06-1A1.33,1.33,0,0,1,4.11,24Zm15.3,1.45a6.37,6.37,0,0,0-.19-1.37,7.24,7.24,0,0,0-.4-1.19,1.16,1.16,0,0,0-.64-.63,1.71,1.71,0,0,0-.71-.15,4.93,4.93,0,0,0-1.15.11,4.3,4.3,0,0,1-1.6,0c-.35-.07-.71-.12-1.06-.17a1.33,1.33,0,0,0-1.13.33,2,2,0,0,0-.52.68,5,5,0,0,0-.51,3,2.33,2.33,0,0,0,.21.74,1,1,0,0,0,.46.47,1,1,0,0,0,1-.05,2.45,2.45,0,0,0,.54-.48c.16-.18.33-.36.5-.52a1.6,1.6,0,0,1,1.62-.32,2.48,2.48,0,0,1,.94.58c.18.17.34.34.51.52a2.24,2.24,0,0,0,.6.42A.87.87,0,0,0,19,27.1a1.51,1.51,0,0,0,.2-.35A3.08,3.08,0,0,0,19.41,25.44ZM15,21.29l.19.23.19.24c.15-.22.29-.42.41-.63a1,1,0,0,0,.09-.41l-.49.17a.41.41,0,0,0-.11.07Z" transform="translate(-0.94 -0.8)"/><path class="cls-7" d="M17.51,3.9V6.34H14.87a1.53,1.53,0,0,0-1,.34,8.48,8.48,0,0,0-1,.89c-.5.48-1,.94-1.49,1.46a5.54,5.54,0,0,0-.81,1,1.29,1.29,0,0,0-.23.68.86.86,0,0,0,.09.47,1.91,1.91,0,0,0,.42.57L12,12.83c.12.11.24.21.36.34l1.2,1.16a4.4,4.4,0,0,0,.37.38,1,1,0,0,0,.51.22l.69.05h3V12.2H14.63l.09-2.39h3.82A7.81,7.81,0,0,1,20,9.93l.28.07a.22.22,0,0,1,.13.15,1.55,1.55,0,0,1,.06.31c0,.19.05.38.06.55.07,1,.06,2,.05,3v3.38a1.36,1.36,0,0,1-.43.14,6.78,6.78,0,0,1-1,.1H14.37a2.62,2.62,0,0,1-1.9-.73A10.24,10.24,0,0,1,11.42,16l-1.5-1.46c-.43-.42-.88-.84-1.3-1.27A2.68,2.68,0,0,1,8,12.33a2.59,2.59,0,0,1-.16-.72,10.84,10.84,0,0,1,0-1.14v-1a1.3,1.3,0,0,1,.39-.85l.34-.32c.47-.48,1-1,1.43-1.46s1-1,1.53-1.53a14.79,14.79,0,0,1,1.24-1.14h0a1,1,0,0,1,.63-.24h4.15Z" transform="translate(-0.94 -0.8)"/><path class="cls-8" d="M21.49,18.65a.81.81,0,0,1,.33.21.36.36,0,0,1,.07.18H23.2a.8.8,0,0,1,.34.11l.19.1.27-.7h.06a2.84,2.84,0,0,0,.77.55h.06a.51.51,0,0,1,.28.37,4.09,4.09,0,0,1,.09.85v.95c0,.32-.05.7-.08,1s-.06.54-.11.82,0,.21-.27.26a7.57,7.57,0,0,1-1.16.1H22a5.91,5.91,0,0,1-1.26-.11c-.23-.05-.18,0-.24-.22a3.64,3.64,0,0,1-.16-.85,13,13,0,0,1,0-2,4.59,4.59,0,0,1,.06-.73.65.65,0,0,1,0-.2.5.5,0,0,1,.37-.36L21,19a1,1,0,0,0,.46-.3Zm3.35,1.62H20.89c0,.85-.05,1.71-.06,2.55.16,0,3.7.09,3.78.06Z" transform="translate(-0.94 -0.8)"/><path class="cls-7" d="M18.57,3.31l.32.19A8.26,8.26,0,0,1,20,4.31l1.09,1a15.45,15.45,0,0,0,1.45,1.23h.05a1,1,0,0,1-.31.21,3,3,0,0,1-.59.15L21.12,7H21l.13.32c.17.36.34.71.52,1.07l.09.19c0,.09,0,.13-.06.19a1.19,1.19,0,0,1-.56.25C21,9,21,9,20.89,8.9c-.16-.32-.31-.63-.45-.94a1.81,1.81,0,0,0-.33-.44L20,7.5l-.31.28a3.6,3.6,0,0,1-.58.45L19,8.3V8.06a9.15,9.15,0,0,0-.08-.94c0-.3-.06-.64-.09-1l-.06-.64-.13-1V3.86A2,2,0,0,1,18.57,3.31Z" transform="translate(-0.94 -0.8)"/><path class="cls-8" d="M9.22,18.22h1v3.93a1.54,1.54,0,0,1-.1.56c0,.11-.13.18-.2.27H9.39a.58.58,0,0,1-.17-.37,5,5,0,0,1-.06-.54V18.36Z" transform="translate(-0.94 -0.8)"/><path class="cls-8" d="M6.1,19.38h1a.06.06,0,0,1,0,.06v3.09A.8.8,0,0,1,7,23a.1.1,0,0,1-.1.07H6.3A.12.12,0,0,1,6.19,23,1.34,1.34,0,0,1,6,22.48a2.28,2.28,0,0,1,0-.37V19.5A.2.2,0,0,1,6.1,19.38Z" transform="translate(-0.94 -0.8)"/><path class="cls-8" d="M8.57,23H7.63V20A7,7,0,0,1,8.75,20v1.9a3.48,3.48,0,0,1-.12.84Z" transform="translate(-0.94 -0.8)"/><path class="cls-8" d="M4.44,20.6h1V23a7.37,7.37,0,0,1-.94,0V20.73Z" transform="translate(-0.94 -0.8)"/><path class="cls-9" d="M10.34,16.67l-.28.51a.32.32,0,0,1-.19.15c-.27.07-.19.09-.45,0L9,17.05a2.21,2.21,0,0,1,.15-.5.28.28,0,0,1,.08-.11l.34-.28a.1.1,0,0,1,.14,0l.24.16c.12.09.24.21.37.32S10.33,16.65,10.34,16.67Z" transform="translate(-0.94 -0.8)"/><path class="cls-7" d="M19.41,25.44a3.15,3.15,0,0,1-.21,1.29,1.51,1.51,0,0,1-.2.35.88.88,0,0,1-1.13.29,2.53,2.53,0,0,1-.6-.43c-.17-.18-.33-.35-.51-.52a2.48,2.48,0,0,0-.94-.58,1.58,1.58,0,0,0-1.61.36,6.17,6.17,0,0,0-.5.53,2.79,2.79,0,0,1-.55.48,1,1,0,0,1-1,.05,1.1,1.1,0,0,1-.46-.47,2.33,2.33,0,0,1-.21-.74,5,5,0,0,1,.56-2.95,2.32,2.32,0,0,1,.52-.68,1.36,1.36,0,0,1,1.14-.33c.34.05.7.1,1,.17a4.36,4.36,0,0,0,1.61,0,5.54,5.54,0,0,1,1.15-.12,2,2,0,0,1,.71.16,1.13,1.13,0,0,1,.64.63,7.92,7.92,0,0,1,.4,1.19A6.5,6.5,0,0,1,19.41,25.44Zm-6.86-1.27.17.33a.16.16,0,0,0,.13.06H13a.74.74,0,0,1,.29.34.54.54,0,0,0,.21.28s.12.09.2,0v.08s.05-.08,0-.08a.72.72,0,0,1,0-.15l.21-.16a.76.76,0,0,1,.11-.14l.45-.31.1-.08a.55.55,0,0,0-.16-.18,1.65,1.65,0,0,1-.47-.48c-.09-.13-.09-.18,0-.3a1.87,1.87,0,0,0-.39-.22l-.22.07H13.3a.1.1,0,0,0-.09.13,3,3,0,0,1,0,.3V24h-.49Zm5.88.35a.54.54,0,0,1,0-.18.1.1,0,0,0,0-.14L18.08,24h-.19a.67.67,0,0,0,0,.2,1.18,1.18,0,0,0,.08.31Zm-1.07-.66.27-.16a.11.11,0,0,0,.05-.15.12.12,0,0,0-.05-.05c-.08-.07-.19-.14-.28-.21h-.09c-.13,0-.18.12-.14.26a.73.73,0,0,0,.24.33ZM17,25.2h.5a1.46,1.46,0,0,0-.09-.36c0-.13-.05-.06-.1-.06a.75.75,0,0,0-.29.09Z" transform="translate(-0.94 -0.8)"/><path class="cls-10" d="M15,21.3l.31-.38a.28.28,0,0,1,.11-.08l.46-.12a1.13,1.13,0,0,1-.11.48c-.13.21-.27.41-.42.62l-.19-.23Z" transform="translate(-0.94 -0.8)"/><path class="cls-11" d="M24.82,20.27,24.63,23c-.12,0-3.66,0-3.78-.06,0-.85,0-1.71.06-2.56h3.84Zm-.32.55a.54.54,0,0,0-.43.27,1.72,1.72,0,0,1-.75.76.12.12,0,0,0-.07.11.28.28,0,0,0,0,.13v.6a1.46,1.46,0,0,0,.52-.34,1.72,1.72,0,0,0,.41-.55,3.25,3.25,0,0,0,.33-.95h0Zm-1.58-.17h-.37c-.19,0-.19,0-.29.2a.36.36,0,0,0-.06.28,2.64,2.64,0,0,0,.12.4l.53,0ZM22.87,22h-.53a2.39,2.39,0,0,0-.15.37.25.25,0,0,0,.12.32h.08a2.1,2.1,0,0,0,.43.05h.11Zm-1.62-1.23a3.66,3.66,0,0,0,0,.81h.14a1,1,0,0,0,.47-.19A.22.22,0,0,0,22,21a.17.17,0,0,0-.1-.1A1.13,1.13,0,0,0,21.25,20.72Zm2.06.64a.8.8,0,0,0,.62-.75h-.69a3.94,3.94,0,0,0,.07.77Zm-1.38,1.28-.12-.7h-.47l-.1.62Z" transform="translate(-0.94 -0.8)"/><path class="cls-12" d="M12.55,24.18l.21-.18a.2.2,0,0,1,.11,0h.38v-.59c0-.1,0-.1.09-.13h.05l.23-.08a1.9,1.9,0,0,1,.39.23c-.12.12-.13.17,0,.3a1.51,1.51,0,0,0,.47.47,1,1,0,0,1,.16.19l-.1.08-.45.31a.49.49,0,0,0-.11.14,1.34,1.34,0,0,0-.12.24.09.09,0,0,0,0,.14c.07.06,0,.05,0,.08v-.07c-.08.05-.14,0-.2,0A.56.56,0,0,1,13.4,25a.79.79,0,0,0-.29-.34H13a.11.11,0,0,1-.12-.06Z" transform="translate(-0.94 -0.8)"/><path class="cls-13" d="M18.43,24.54h-.49a1.67,1.67,0,0,0-.08-.3.74.74,0,0,1,0-.21.09.09,0,0,1,.07,0,.24.24,0,0,1,.12,0l.36.22a.12.12,0,0,1,0,.14A.77.77,0,0,0,18.43,24.54Z" transform="translate(-0.94 -0.8)"/><path class="cls-14" d="M17.36,23.88a.72.72,0,0,1-.21-.33c0-.14,0-.24.14-.26h.09l.28.21a.11.11,0,0,1,0,.16.08.08,0,0,1,0,0Z" transform="translate(-0.94 -0.8)"/><path class="cls-15" d="M17,25.22v-.33a.75.75,0,0,1,.29-.09c.05,0,.1,0,.11.05a3.22,3.22,0,0,0,.08.37Z" transform="translate(-0.94 -0.8)"/><path class="cls-9" d="M24.5,20.82a3.25,3.25,0,0,1-.33.95,1.59,1.59,0,0,1-.41.55,1.46,1.46,0,0,1-.52.34v-.55a.28.28,0,0,1,0-.13.11.11,0,0,1,.08-.11,1.75,1.75,0,0,0,.74-.76.54.54,0,0,1,.44-.27Z" transform="translate(-0.94 -0.8)"/><path class="cls-9" d="M22.92,20.65l-.07,1-.53-.05a2.64,2.64,0,0,1-.12-.4.36.36,0,0,1,.06-.28c.1-.17.1-.18.29-.2h.37Z" transform="translate(-0.94 -0.8)"/><path class="cls-16" d="M22.87,22l.06.77h-.11a3.15,3.15,0,0,1-.43,0,.23.23,0,0,1-.2-.33,2.39,2.39,0,0,1,.15-.37h.08Z" transform="translate(-0.94 -0.8)"/><path class="cls-16" d="M21.25,20.72a1.2,1.2,0,0,1,.63.2.22.22,0,0,1,.1.3.19.19,0,0,1-.1.1,1,1,0,0,1-.47.19h-.14A4.17,4.17,0,0,1,21.25,20.72Z" transform="translate(-0.94 -0.8)"/><path class="cls-16" d="M23.31,21.38a3.94,3.94,0,0,1-.07-.77h.69A.79.79,0,0,1,23.31,21.38Z" transform="translate(-0.94 -0.8)"/><path class="cls-16" d="M21.93,22.65l-.69,0,.1-.63h.47Z" transform="translate(-0.94 -0.8)"/><polygon class="cls-9" points="23.56 20.02 23.56 20.01 23.56 20.02 23.56 20.02"/></svg>