<svg id="Camada_1" data-name="Camada 1" xmlns="http://www.w3.org/2000/svg" viewBox="0 0 271.7 58.08"><defs><style>.cls-1{fill:#32a6d2;}.cls-2{fill:#33a6d3;}.cls-3{fill:#32a6d3;}.cls-4{fill:#9dc53f;}.cls-5{fill:#f5f6f6;}.cls-6{fill:#f4f5f5;}.cls-7{fill:#f4f6f5;}.cls-8{fill:#f3f5f5;}.cls-9{fill:#f5f6f5;}.cls-10{fill:#f4f5f2;}.cls-11{fill:#38a7d3;}.cls-12{fill:#9fc641;}.cls-13{fill:#a0c644;}.cls-14{fill:#a1c746;}.cls-15{fill:#a2c747;}.cls-16{fill:#f2f5f5;}</style></defs><path class="cls-1" d="M5.37,32.7c0-1.08,0-2.16.08-3.22A26.2,26.2,0,0,1,7,22a29.6,29.6,0,0,1,6-10A29.26,29.26,0,0,1,23.32,4.64a28.25,28.25,0,0,1,7.16-1.95,36.86,36.86,0,0,1,5.15-.24,29.13,29.13,0,0,1,6.48,1.12A28.76,28.76,0,0,1,51,8a29.31,29.31,0,0,1,9.12,10.89,26.77,26.77,0,0,1,2.16,6.94A32.33,32.33,0,0,1,62.77,33a28.58,28.58,0,0,1-3,12,17,17,0,0,1-3.5,4.7c-2.35.06-4.7.15-7.07.14-1.3,0-2.61-.19-3.91-.3a.66.66,0,0,1-.6-.43c-.46-1-.94-2-1.46-3a8.51,8.51,0,0,0-3.68-3.35,9.39,9.39,0,0,0-10.34.71,11.41,11.41,0,0,0-4.12,5.85c-.11.3-.22.41-.55.4H20.83l-8.95-.07a16.2,16.2,0,0,1-2.49-3.42A28.75,28.75,0,0,1,6,37.25C5.67,35.75,5.57,34.21,5.37,32.7Zm33.73-19v-.07c0-1.56.06-3.12.07-4.7,0-.1-.2-.25-.3-.26-1-.06-2-.15-3.06-.16-1.59,0-3.18.06-4.77.06a2.39,2.39,0,0,0-1.73.67c-.94.94-2,1.76-2.91,2.69-2,2-4,4.05-6,6a3.31,3.31,0,0,0-1,2.48v3.17a5.63,5.63,0,0,0,1.76,4.27c1.42,1.38,2.82,2.76,4.26,4.12.94.94,1.95,1.8,2.92,2.71a5.73,5.73,0,0,0,4.6,1.71c.63-.06,1.25-.09,1.88-.09,1.88,0,3.84.06,5.77.09a16.77,16.77,0,0,0,4-.27c.7-.16.7-.18.72-.94.06-1.74.14-3.49.15-5.24,0-2.27,0-4.56-.08-6.83a14.83,14.83,0,0,0-.22-1.88.56.56,0,0,0-.5-.54,16.6,16.6,0,0,0-2.23-.3c-2.67,0-5.33,0-8,.08-.32,0-.63,0-.94.08V21.7c0,1.11-.06,2.22-.14,3.33,0,.34,0,.47.42.47h6.44v5.64c-.31,0-.6.08-.94.08H33.67A3.4,3.4,0,0,1,31,30.06c-.82-.94-1.73-1.72-2.6-2.56-1.08-1-2.18-2.05-3.23-3.13a2.17,2.17,0,0,1-.73-2.26,5.85,5.85,0,0,1,.94-1.69,47.4,47.4,0,0,1,6.26-6.09,3,3,0,0,1,2-.68C35.44,13.71,37.25,13.7,39.1,13.7Zm8.23,25a2.46,2.46,0,0,1-1.53,1.06,1.08,1.08,0,0,0-.86.94,18.83,18.83,0,0,0-.18,4.86,22,22,0,0,0,.43,2.66.55.55,0,0,0,.36.34,10,10,0,0,0,1.72.24h5a12.55,12.55,0,0,0,1.93-.23.47.47,0,0,0,.38-.31,17.67,17.67,0,0,0,.3-1.77c.08-1,.19-2,.19-3a24.3,24.3,0,0,0-.2-2.82,1.2,1.2,0,0,0-.41-.69c-.64-.46-1.31-.86-2-1.29L51.9,40A2.62,2.62,0,0,0,50,39.53H48.43a.53.53,0,0,1-.3-.12C47.87,39.2,47.64,38.94,47.33,38.65ZM44.51,16.07a10,10,0,0,1,.69,1c.29.52.51,1.08.77,1.61a.78.78,0,0,0,1.22.42c.79-.38.83-.5.47-1.29L46.4,15.16c1.07-.3,2.23-.16,3.16-.94l-.22-.15c-1.25-1.09-2.49-2.18-3.76-3.25-.94-.84-1.95-1.68-2.95-2.49-.4-.28-.81-.55-1.23-.79l.94,10.27ZM22.22,37.83v.33c0,1.4,0,2.82.06,4.21s0,2.75,0,4.12c0,.82.35,1.08,1.17,1.14a.79.79,0,0,0,.92-.64s0-.06,0-.08a7.1,7.1,0,0,0,.15-1.3c0-1.88-.06-3.76-.09-5.64V37.9Zm-6.29,2.36c0,.38-.11.68-.12,1,0,1.59-.06,3.18-.07,4.77A3.61,3.61,0,0,0,15.93,47c.2.67.22.66.94.61h.32c.62,0,.63,0,.79-.63a2,2,0,0,0,.07-.42c0-2,.06-4,.08-6v-.43Zm3,1.29V47.6h1.3c.85,0,.76.07.94-.87a26.42,26.42,0,0,0,.07-4.87.37.37,0,0,0-.26-.27A18.17,18.17,0,0,1,19,41.51Zm-6.2,6.11h2V42.74H12.55ZM23.19,33.5a3.72,3.72,0,0,0-.83.7A2.68,2.68,0,0,0,22,35.42c0,.13.4.32.62.47a2.31,2.31,0,0,0,.35.18A.87.87,0,0,0,24,35.85c.25-.36.45-.76.69-1.18Z" transform="translate(-5.37 -2.44)"/><path class="cls-2" d="M99.69,26.55l-3.76.69-1.21.23a.33.33,0,0,1-.43-.19.09.09,0,0,1,0-.05,5.69,5.69,0,0,0-4.76-3.76c-3.76-.59-6.85,1.56-7.91,5.35a13.39,13.39,0,0,0-.36,4.88,9.82,9.82,0,0,0,1,3.76,6.43,6.43,0,0,0,5,3.59A10.5,10.5,0,0,0,93,40.29a2.49,2.49,0,0,0,1.77-3.17,9.19,9.19,0,0,0-.19-.94c0-.3-.2-.44-.54-.45-1.58,0-3.15,0-4.7-.07l-.61,0V31l11.28.2v10.2a.61.61,0,0,1-.3.59c-1.09.76-2.13,1.57-3.26,2.26a12.2,12.2,0,0,1-4.53,1.51,16.49,16.49,0,0,1-6.71-.12,11.75,11.75,0,0,1-9.22-8.93,16.92,16.92,0,0,1,.43-10.34,11.55,11.55,0,0,1,8.81-7.64,13.84,13.84,0,0,1,9.4,1.1,8.81,8.81,0,0,1,4.49,4.64A19.27,19.27,0,0,1,99.69,26.55Z" transform="translate(-5.37 -2.44)"/><path class="cls-3" d="M131,45.64c-1.5,0-2.95-.09-4.4-.15a.65.65,0,0,1-.69-.59v-.11c0-1.06-.19-2.11-.21-3.16q-.08-4.8-.06-9.59c0-1.88.1-3.76.14-5.64V26h5c.16.81.08,1.73.82,2.33a12.49,12.49,0,0,1,.94-1.23,4.93,4.93,0,0,1,2.62-1.41,9.43,9.43,0,0,1,3.59-.06,5.5,5.5,0,0,1,3.12,1.87c.32.32.62.65.94,1,.57-.5,1.12-.94,1.63-1.42a5.45,5.45,0,0,1,3.27-1.46,8.53,8.53,0,0,1,3.76.28,5.17,5.17,0,0,1,3.76,4.44c.22,1.69.39,3.39.48,5.09q.16,2.94.13,5.91c0,1.33-.18,2.64-.29,4a.44.44,0,0,1-.27.29c-1.35,0-2.68.11-4,.1-.69,0-.94-.34-1.05-1a14.06,14.06,0,0,1,0-1.59V41.92c.06-2.29.15-4.56.13-6.84a14.5,14.5,0,0,0-.38-3.14,2.81,2.81,0,0,0-3.37-2,3.29,3.29,0,0,0-2.82,2.66,11.23,11.23,0,0,0-.4,2.82c0,2.34.08,4.7.09,7,0,1-.09,2.09-.16,3.18h-5.19a14.85,14.85,0,0,1-.23-1.88V38.45a29.4,29.4,0,0,0-.07-5.39,5.74,5.74,0,0,0-.56-1.76,2.36,2.36,0,0,0-2.41-1.21c-2.16.08-3.1,1.38-3.53,3.25a20.56,20.56,0,0,0-.29,5.37c.06,2,.07,3.9.09,5.85A9.81,9.81,0,0,1,131,45.64Z" transform="translate(-5.37 -2.44)"/><path class="cls-4" d="M11.9,49.64l9,.07h3.76c.33,0,.44-.11.55-.41a11.36,11.36,0,0,1,4.1-5.83,9.41,9.41,0,0,1,10.34-.72,8.6,8.6,0,0,1,3.68,3.36c.54.94,1,2,1.46,3a.66.66,0,0,0,.6.43c1.3.11,2.61.3,3.91.3,2.36,0,4.7-.08,7.07-.14-.39.54-.75,1.11-1.19,1.62a27.53,27.53,0,0,1-13.85,8.33,26.4,26.4,0,0,1-8.11.85,30,30,0,0,1-10.89-2.65,31.52,31.52,0,0,1-8.9-6.18A5.49,5.49,0,0,1,11.9,49.64Zm15,2.94h-.1c.16.8.28,1.63.51,2.42a2,2,0,0,0,1.55,1.48,2.11,2.11,0,0,0,1.94-.57c.6-.53,1.13-1.15,1.72-1.7a3.2,3.2,0,0,1,3.26-.8,6.23,6.23,0,0,1,2.5,1.7,10.82,10.82,0,0,0,1.39,1.23A1.87,1.87,0,0,0,42.26,56a.94.94,0,0,0,.12-.18,4.88,4.88,0,0,0,.72-2.6A14.35,14.35,0,0,0,42,47.48a2.37,2.37,0,0,0-1-1.19,4.32,4.32,0,0,0-2.82-.44,20.45,20.45,0,0,1-2.82.32,24.58,24.58,0,0,1-3.62-.39,3.1,3.1,0,0,0-3.38,1.51A10.23,10.23,0,0,0,26.86,52.58Zm9-9.67A2.22,2.22,0,0,0,34,44.22l.74.94A3.83,3.83,0,0,0,35.84,42.91Z" transform="translate(-5.37 -2.44)"/><path class="cls-4" d="M270.21,33.3c.89,1.47,1.78,2.91,2.63,4.38,1.22,2.08,2.42,4.19,3.6,6.3.24.51.45,1,.64,1.56h-5.54a.53.53,0,0,1-.52-.31q-2.19-3.85-4.39-7.7l-.21-.36A3.6,3.6,0,0,0,264,40.69c0,.94.16,2,.24,2.93v.07c.17,1.22-.18,1.77-1.4,1.88s-2.68,0-4.08,0c-.07-.94-.16-1.81-.19-2.69-.25-7.13-.25-14.25-.08-21.38,0-.83.09-1.67.15-2.5,0-.11.12-.3.2-.3a15.74,15.74,0,0,1,3.88,0c1.17.22,1.23.3,1.23,1.46q0,6,0,12v.56a6.9,6.9,0,0,0,.68-.53c1.4-1.42,2.82-2.82,4.18-4.29.46-.57.89-1.15,1.29-1.76a.49.49,0,0,1,.33-.23l6.39.26Z" transform="translate(-5.37 -2.44)"/><path class="cls-4" d="M233.91,45.49h-5a.37.37,0,0,1-.42-.31c-.16-.49-.34-.94-.52-1.49a11.31,11.31,0,0,1-3.31,1.66,9.69,9.69,0,0,1-5.64.24,4.7,4.7,0,0,1-3.5-3.83,7.36,7.36,0,0,1,0-3.46A4.7,4.7,0,0,1,218.76,35c1.6-.54,3.27-.88,4.91-1.28,1.32-.33,2.64-.64,3.92-.94.16-1.68-.66-3-2-3.23a4.12,4.12,0,0,0-4.23,1.59,1.5,1.5,0,0,1-1.81.72c-1.12-.27-2.28-.39-3.44-.57a5,5,0,0,1,1.17-3A7.51,7.51,0,0,1,220.93,26a12.3,12.3,0,0,1,7.66-.07,6.17,6.17,0,0,1,3.55,2.4,5.58,5.58,0,0,1,.94,2.82c.08,2,.13,4,.15,6.08a59.41,59.41,0,0,0,.69,8A.67.67,0,0,0,233.91,45.49Zm-6.12-9c-.94.17-1.72.27-2.51.48a17,17,0,0,0-3.14.94A2.07,2.07,0,0,0,221,40.58a2.13,2.13,0,0,0,1,1.05,3.56,3.56,0,0,0,3.76-.07,3.1,3.1,0,0,0,1.88-2.28C227.72,38.4,227.71,37.47,227.79,36.45Z" transform="translate(-5.37 -2.44)"/><path class="cls-3" d="M103.9,31.49a6.32,6.32,0,0,1,1.2-3.06,7.19,7.19,0,0,1,4.46-2.63,14.31,14.31,0,0,1,8,.54,4.77,4.77,0,0,1,3,3.41,15.87,15.87,0,0,1,.55,3.88c.07,2,.07,4.1.18,6.15.09,1.8.3,3.58.45,5.38v.3h-4.69a.42.42,0,0,1-.49-.32.25.25,0,0,1,0-.08c-.09-.5-.24-.94-.38-1.55-.73.46-1.4.94-2.1,1.31a9.21,9.21,0,0,1-7.52.65,4.7,4.7,0,0,1-3.28-4.19,10.14,10.14,0,0,1,.08-2.64,4.19,4.19,0,0,1,2.48-3.2,17.42,17.42,0,0,1,4.47-1.32,22.72,22.72,0,0,0,5-1.36c.25-.11.37-.24.33-.52s-.09-.74-.16-1.1a1.89,1.89,0,0,0-1.59-1.48,7.22,7.22,0,0,0-3,0A2.53,2.53,0,0,0,109.26,31c-.58.94-.58.94-1.68.81S105.18,31.62,103.9,31.49Zm11.89,4.95h-.33c-1.31.25-2.62.5-3.92.8a4.52,4.52,0,0,0-2.13.89,2.11,2.11,0,0,0-.84,2,2.09,2.09,0,0,0,1.56,1.68,5.13,5.13,0,0,0,4.05-.54,2.67,2.67,0,0,0,1.28-1.59A11.26,11.26,0,0,0,115.79,36.44Z" transform="translate(-5.37 -2.44)"/><path class="cls-1" d="M164.56,37.14c.21,1.54.54,3,1.88,3.88a4.83,4.83,0,0,0,2.44.73,7.15,7.15,0,0,0,1.31-.06,2.51,2.51,0,0,0,1.62-.94c.36-.44.75-.86,1.13-1.28a.71.71,0,0,1,.44-.19c1.46.17,2.94.37,4.47.58a8,8,0,0,1-.24.94,6.92,6.92,0,0,1-3.87,4.11,10.84,10.84,0,0,1-9.34,0,8.52,8.52,0,0,1-5.05-6.52,12.84,12.84,0,0,1,1.11-8.31,8.4,8.4,0,0,1,6.14-4.47,10.07,10.07,0,0,1,7.9,1.63,8.55,8.55,0,0,1,3.76,6.06,11.7,11.7,0,0,1-.06,3.64c0,.24-.17.26-.36.26H164.91Zm0-3.36h8.37c-.26-.85-.45-1.65-.76-2.4a2.66,2.66,0,0,0-1.68-1.53,5.22,5.22,0,0,0-2.66-.13,3.42,3.42,0,0,0-2.26,1.53,6.63,6.63,0,0,0-1,2.53Z" transform="translate(-5.37 -2.44)"/><path class="cls-4" d="M186.77,23.87c-2.71,0-5.34.37-7.93-.25V19.13c.94-.09,1.88-.23,2.76-.25,3.94-.08,7.88-.14,11.82-.15,1.88,0,3.84.13,5.76.23.53,0,1.06.11,1.59.2v4.7h-8.1c0,.83-.14,1.57-.13,2.3.05,4.05.14,8.09.17,12.13a39.36,39.36,0,0,1-.25,6.42c-.13.72-.13.72-.84.78a13.82,13.82,0,0,1-3.52,0c-.94-.16-1-.26-1.17-1.18a16.76,16.76,0,0,1-.21-2.45c0-4.37.07-8.74.1-13.11C186.83,27.14,186.79,25.52,186.77,23.87Z" transform="translate(-5.37 -2.44)"/><path class="cls-4" d="M255.12,32.56l-2.09.13c-.81,0-1.64.09-2.46.11a.59.59,0,0,1-.43-.19,3.51,3.51,0,0,1-.58-.94A2.64,2.64,0,0,0,247.5,30a4,4,0,0,0-3.45.56,4.09,4.09,0,0,0-1.44,2.15,8.81,8.81,0,0,0,0,6,3.94,3.94,0,0,0,4.77,2.76A2.7,2.7,0,0,0,249.26,40c.32-.53.6-1.09.87-1.65a.34.34,0,0,1,.42-.23c1.48.21,3,.39,4.48.59a5.61,5.61,0,0,1-.47,2.59,7.46,7.46,0,0,1-4.36,4.06,10.51,10.51,0,0,1-8.09-.06,8.55,8.55,0,0,1-5.18-6.21,12.53,12.53,0,0,1,.58-8.06,8.94,8.94,0,0,1,6.58-5.39,9.75,9.75,0,0,1,7.66,1.25A7.4,7.4,0,0,1,255.12,32.56Z" transform="translate(-5.37 -2.44)"/><path class="cls-4" d="M201.76,45.55A182.87,182.87,0,0,1,201.61,26l5.09.15.19,2.69c.25-.29.41-.5.6-.69.52-.55,1-1.14,1.59-1.65a4.46,4.46,0,0,1,3.26-1,6.87,6.87,0,0,1,1.1.13.55.55,0,0,1,.35.33c.1.87.17,1.73.2,2.6,0,.6-.06,1.19-.08,1.79,0,.23,0,.34-.32.38-1.2.15-2.38.35-3.58.51a3.06,3.06,0,0,0-2.61,2.19,10.69,10.69,0,0,0-.4,4.09c.05,1.88.16,3.71.16,5.56a9.94,9.94,0,0,1-.35,2,.61.61,0,0,1-.38.34,2.66,2.66,0,0,1-.89.18C204.29,45.56,203.09,45.55,201.76,45.55Z" transform="translate(-5.37 -2.44)"/><path class="cls-5" d="M39.1,13.7H33.62a3,3,0,0,0-2,.68,46.94,46.94,0,0,0-6.2,6.09,5.5,5.5,0,0,0-.94,1.69,2.17,2.17,0,0,0,.73,2.26c1,1.08,2.14,2.08,3.22,3.13.88.84,1.79,1.66,2.61,2.56a3.42,3.42,0,0,0,2.68,1.14h5.57c.29,0,.58-.06.94-.09V25.52H33.8c-.36,0-.43-.12-.41-.47.07-1.1.1-2.21.13-3.32V20.62c.35,0,.66-.09.94-.09,2.67,0,5.33-.08,8-.07a16.82,16.82,0,0,1,2.23.3.58.58,0,0,1,.5.54,16.63,16.63,0,0,1,.22,1.88c0,2.27.09,4.55.08,6.83,0,1.75-.1,3.49-.15,5.24,0,.73,0,.75-.73.94a16.69,16.69,0,0,1-4,.27c-1.93,0-3.85-.07-5.77-.09-.63,0-1.26,0-1.88.09a5.74,5.74,0,0,1-4.61-1.71c-.94-.94-2-1.79-2.91-2.71-1.43-1.36-2.82-2.75-4.26-4.12a5.65,5.65,0,0,1-1.77-4.27V20.48a3.28,3.28,0,0,1,1-2.48c2-2,4-4,6-6,.94-.94,1.95-1.8,2.92-2.7a2.39,2.39,0,0,1,1.73-.66c1.58,0,3.17-.07,4.77-.06,1,0,2,.1,3,.16.11,0,.31.16.31.25,0,1.56,0,3.13-.07,4.7A.08.08,0,0,0,39.1,13.7Z" transform="translate(-5.37 -2.44)"/><path class="cls-6" d="M47.33,38.65c.28.29.51.55.76.78a.53.53,0,0,0,.3.12H50a2.62,2.62,0,0,1,1.88.44l.53-1.38c.69.43,1.37.83,2,1.29a1.16,1.16,0,0,1,.4.69A26.75,26.75,0,0,1,55,43.41c0,1-.12,2-.2,3.05a16.82,16.82,0,0,1-.26,1.71c0,.13-.24.28-.38.31a13.91,13.91,0,0,1-1.93.22h-5a10,10,0,0,1-1.72-.24.53.53,0,0,1-.36-.34,22.15,22.15,0,0,1-.43-2.69,19.14,19.14,0,0,1,.18-4.78,1.08,1.08,0,0,1,.86-.94A2.46,2.46,0,0,0,47.33,38.65Zm6.39,9L54.1,42l-8.1.17v5.33Z" transform="translate(-5.37 -2.44)"/><path class="cls-5" d="M44.51,16.07l-2.19,1.7L41.38,7.51a12.23,12.23,0,0,1,1.23.79c1,.8,2,1.64,3,2.48,1.26,1.07,2.5,2.16,3.76,3.25l.22.15c-.94.82-2.09.68-3.16.94l1.26,2.66c.42.88.32.94-.47,1.29-.62.3-.94.2-1.21-.42s-.49-1.09-.77-1.61A11.2,11.2,0,0,0,44.51,16.07Z" transform="translate(-5.37 -2.44)"/><path class="cls-7" d="M22.22,37.83l2.24.11V40c0,1.88.08,3.76.09,5.64a6.42,6.42,0,0,1-.16,1.3.79.79,0,0,1-.85.73h-.09c-.81-.06-1.13-.32-1.16-1.14V42.41c0-1.38,0-2.82-.06-4.22A1,1,0,0,1,22.22,37.83Z" transform="translate(-5.37 -2.44)"/><path class="cls-7" d="M15.93,40.22h2.19v.43c0,2-.05,4-.09,6A2,2,0,0,1,18,47c-.15.61-.17.62-.79.63h-.32c-.7,0-.72.06-.94-.61A3.61,3.61,0,0,1,15.72,46c0-1.59,0-3.18.07-4.77C15.82,40.9,15.88,40.65,15.93,40.22Z" transform="translate(-5.37 -2.44)"/><path class="cls-8" d="M19,41.51c.72,0,1.4.06,2.09.12a.38.38,0,0,1,.23.26,26.42,26.42,0,0,1-.07,4.87c-.19.94-.1.83-.94.87H19Z" transform="translate(-5.37 -2.44)"/><path class="cls-8" d="M12.76,47.62l-.21-4.88h2.18v4.88Z" transform="translate(-5.37 -2.44)"/><path class="cls-8" d="M23.19,33.55l1.46,1.12c-.24.42-.44.82-.69,1.18a.87.87,0,0,1-1.06.22,2.31,2.31,0,0,1-.35-.18c-.22-.15-.63-.34-.62-.47a2.73,2.73,0,0,1,.43-1.16A4,4,0,0,1,23.19,33.55Z" transform="translate(-5.37 -2.44)"/><path class="cls-9" d="M26.86,52.58a10.21,10.21,0,0,1,1.45-5.28,3.12,3.12,0,0,1,3.39-1.51,25.69,25.69,0,0,0,3.62.39,19.35,19.35,0,0,0,2.82-.33A4.39,4.39,0,0,1,41,46.3a2.42,2.42,0,0,1,1,1.21,14.3,14.3,0,0,1,1.15,5.7,4.89,4.89,0,0,1-.72,2.61,1.88,1.88,0,0,1-2.57.67.94.94,0,0,1-.18-.12,10.19,10.19,0,0,1-1.39-1.23,6.23,6.23,0,0,0-2.5-1.7,3.23,3.23,0,0,0-3.27.8c-.59.54-1.11,1.16-1.72,1.7a2.08,2.08,0,0,1-1.93.56A2,2,0,0,1,27.32,55c-.24-.79-.35-1.62-.51-2.43Zm5.22-4.21c-.28-.14-.5-.29-.74-.38a.63.63,0,0,0-.79.43.51.51,0,0,0,0,.17v.94c-.5,0-1.07-.09-1.38.52.19.31.22.79.79.8.13,0,.26.2.38.33s.18.32.31.46c.26.3.48.69,1,.62.08-1,.94-1.38,1.81-2a4,4,0,0,1-.56-.35,10.32,10.32,0,0,1-.8-.82C31.88,48.88,31.74,48.64,32.08,48.37Zm9.11,2.35a1.08,1.08,0,0,0-.1-.59,2.91,2.91,0,0,0-.76-.49c-.25-.13-.4,0-.39.26a7.72,7.72,0,0,0,.12.82ZM39,49.48l.65-.63a6.59,6.59,0,0,0-.69-.6c-.07,0-.34.07-.39.17C38.34,48.83,38.67,49.11,39,49.48Zm.29,2.67c-.13-.31.09-.76-.4-.84s-.61.16-.59.84Z" transform="translate(-5.37 -2.44)"/><path class="cls-10" d="M35.84,42.91a3.81,3.81,0,0,1-1.07,2.22L34,44.19A2.21,2.21,0,0,1,35.84,42.91Z" transform="translate(-5.37 -2.44)"/><path class="cls-11" d="M53.75,47.65,46,47.51V42.22l8.09-.17Zm-.29-4.46a1.35,1.35,0,0,0-.94.58c-.44.52-.94.94-1.41,1.48-.08.08-.2.17-.21.27v1.32c1.27-.36,2.31-2.1,2.53-3.65h0Zm-3.2-.41-.73.08c-.15,0-.35,0-.43.11A1.22,1.22,0,0,0,49,44.41c.17.36.52.2.79.25a.13.13,0,0,0,.12,0c.1-.06.26-.12.27-.21C50.2,44,50.22,43.39,50.26,42.78Zm0,4.33a5,5,0,0,0-.1-1.25c0-.14-.12-.38-.18-.38a1.59,1.59,0,0,0-.94.09c-.21.15-.26.54-.33.82A.47.47,0,0,0,49,47l.1,0c.4.06.74.08,1.16.12Zm-3.4-2.38A10.93,10.93,0,0,0,48,44.34c.4-.18.51-.58.24-.83a2,2,0,0,0-1.38-.46Zm4-2L51,44.32a1.54,1.54,0,0,0,1.28-1.52ZM47,45.52l-.21,1.27,1.41.15L48,45.52Z" transform="translate(-5.37 -2.44)"/><path class="cls-12" d="M32.08,48.37c-.34.27-.2.51,0,.72a10.32,10.32,0,0,0,.8.82,4,4,0,0,0,.56.34c-.82.66-1.73,1-1.81,2-.51.08-.72-.32-1-.61s-.19-.32-.31-.46-.24-.33-.37-.33c-.57,0-.6-.49-.79-.81.31-.61.87-.47,1.38-.51v-.94A.64.64,0,0,1,31.2,48a.51.51,0,0,1,.17,0A5.08,5.08,0,0,1,32.08,48.37Z" transform="translate(-5.37 -2.44)"/><path class="cls-13" d="M41.19,50.72H40.06a7.72,7.72,0,0,1-.12-.82c0-.25.14-.39.39-.26a2.91,2.91,0,0,1,.76.49C41.2,50.25,41.16,50.52,41.19,50.72Z" transform="translate(-5.37 -2.44)"/><path class="cls-14" d="M39,49.48c-.28-.38-.61-.65-.43-1.06,0-.1.32-.22.39-.17a6.59,6.59,0,0,1,.69.6Z" transform="translate(-5.37 -2.44)"/><path class="cls-15" d="M39.24,52.15h-1c0-.68.12-.94.59-.84S39.11,51.84,39.24,52.15Z" transform="translate(-5.37 -2.44)"/><path class="cls-8" d="M53.47,43.19c-.22,1.55-1.26,3.29-2.53,3.65V45.52c0-.1.13-.19.2-.27.47-.49.94-.94,1.41-1.48a1.38,1.38,0,0,1,.94-.58Z" transform="translate(-5.37 -2.44)"/><path class="cls-16" d="M50.26,42.78c0,.61-.06,1.17-.1,1.71,0,.09-.17.15-.27.21h-.12c-.27-.05-.62.11-.79-.26A1.21,1.21,0,0,1,49.1,43c.08-.09.28-.09.43-.11Z" transform="translate(-5.37 -2.44)"/><path class="cls-16" d="M50.29,47.11c-.42,0-.76-.06-1.1-.12a.46.46,0,0,1-.44-.5.36.36,0,0,1,0-.1c.07-.28.12-.67.33-.82a1.56,1.56,0,0,1,.93-.09c.07,0,.16.24.18.38C50.24,46.29,50.26,46.64,50.29,47.11Z" transform="translate(-5.37 -2.44)"/><path class="cls-8" d="M46.86,44.73V43.05a2,2,0,0,1,1.38.46c.27.25.16.65-.24.83A10.93,10.93,0,0,1,46.86,44.73Z" transform="translate(-5.37 -2.44)"/><path class="cls-16" d="M50.85,42.7l1.44.1A1.54,1.54,0,0,1,51,44.32Z" transform="translate(-5.37 -2.44)"/><path class="cls-16" d="M47,45.51h1l.25,1.42-1.41-.15Z" transform="translate(-5.37 -2.44)"/><path class="cls-8" d="M53.46,43.19Z" transform="translate(-5.37 -2.44)"/></svg>